<svg version="1.1" xmlns="http://www.w3.org/2000/svg" xmlns:xlink="http://www.w3.org/1999/xlink" width="149.66667" height="79.81505" viewBox="0,0,149.66667,79.81505"><defs><linearGradient x1="199.66215" y1="185.33978" x2="281.74342" y2="185.33978" gradientUnits="userSpaceOnUse" id="color-1"><stop offset="0" stop-color="#909090"></stop><stop offset="1" stop-color="#ffffff"></stop></linearGradient></defs><g transform="translate(-166.08334,-145.7706)"><g stroke="none" stroke-width="0.5" stroke-miterlimit="10"><path d="M313.25001,217.75c-2.5,0 -2.5,-2.5 -2.5,-2.5l0.03668,-4.23998c-0.42782,-1.23553 -0.57111,-2.61018 -1.28347,-3.70659c-1.21602,-1.87162 -3.19901,-2.72672 -5.32154,-3.25626c1.26243,2.94812 1.80898,5.8252 2.51978,9.37921l0.35675,2.47007c0,0 0.35356,2.47487 -2.12132,2.82842c-2.47487,0.35356 -2.82843,-2.12132 -2.82843,-2.12132l-0.30991,-2.1966c-0.73471,-3.67356 -1.12718,-6.53389 -2.75272,-9.61291c-1.3683,0.94335 -1.73622,2.71584 -2.42411,4.9132l-0.33334,1c0,0 -0.79057,2.3717 -3.16228,1.58113c-2.37171,-0.79057 -1.58114,-3.16227 -1.58114,-3.16227l0.33333,-1c1.43425,-4.11058 1.29832,-5.78213 5.31342,-8.27606c0.25422,-0.88869 0.76957,-1.34072 1.30096,-1.5622c-1.35561,-5.60923 -3.09922,-11.09162 -4.94432,-16.57047c-1.23874,-3.67834 -2.13229,-7.93562 -4.4506,-11.12706c-2.4703,-3.40068 -4.71561,-4.79778 -8.61421,-4.98333c-1.33793,-0.06368 -2.93379,-0.24341 -4.18016,0.20257c-0.01325,1.3585 -0.20101,2.76849 -0.58868,4.2324c0.18476,0.10381 0.36395,0.21838 0.53651,0.34575c1.07898,0.79641 1.27908,2.36669 1.7528,3.6213c0.77401,2.04992 2.44904,4.12724 1.98117,6.26788c-0.05068,0.23189 -0.10204,0.45307 -0.15401,0.66391c1.0553,0.60443 2.0086,1.39333 3.06382,2.78073c4.2464,5.58318 3.21655,13.08715 -1.68001,17.7559c-3.24833,3.09721 -8.77143,3.90502 -12.96867,3.8995c-0.32128,-0.00043 -0.86327,0.00508 -1.52768,-0.00751c0.05815,0.3139 0.10321,0.62948 0.13399,0.94586c0.20836,2.14129 0.10548,4.42547 -0.71436,6.41454c-0.54223,1.31555 -1.97574,2.06967 -3.12716,2.90569c-4.67636,3.39538 -10.33003,3.22289 -15.70944,2.08172c-1.29909,-0.27559 -3.21142,-0.65534 -5.11843,-1.28415c-1.01172,4.26712 -3.97365,7.97259 -8.79382,8.93849c-4.42482,0.88667 -10.04307,-1.0816 -13.31871,-4.04422c-0.83739,-0.75737 -0.92888,-2.08652 -1.63905,-2.9643c-0.31957,-0.39498 0.76559,1.08673 0.42502,1.46375c-1.24909,1.3828 -2.80257,2.70188 -4.60723,3.16616c-3.88206,0.99873 -6.7216,-0.14274 -9.3731,-2.58308c-4.43411,-4.08098 -7.41071,-10.18534 -5.75101,-16.28293c0.34266,-1.25891 0.61568,-2.63155 1.14905,-3.83174c-3.79587,-3.62853 -7.04541,-6.88356 -6.51429,-12.60304c0.16807,-1.80991 0.56067,-3.74003 1.21324,-5.58931c-0.6069,0.50481 -1.3432,0.61809 -1.3432,0.61809c-1.22329,0.15583 -2.51444,0.03652 -3.66985,0.46749c-4.26501,1.59088 -5.78258,7.76491 -6.51472,12.52809c4.44138,1.90821 6.56522,7.47785 8.49683,11.37265l1.08543,4.97036c0,0 0.52382,2.4445 -1.92068,2.96833c-2.4445,0.52382 -2.96833,-1.92068 -2.96833,-1.92068l-0.91456,-4.36297c-0.68406,-1.35461 -1.9488,-4.74687 -3.6277,-6.86259c-0.07037,2.04903 -0.454,5.80709 -0.51579,6.4817l0.00257,2.88671c0,0 0,2.5 -2.5,2.5c-2.5,0 -2.5,-2.5 -2.5,-2.5l0.00257,-3.11328c0.11447,-1.2682 0.14667,-2.54654 0.34342,-3.8046c0.05851,-0.37416 0.34982,-0.74824 0.49894,-1.10927c-0.67563,-0.25736 -1.05729,-0.67902 -1.26699,-1.12261c-0.4222,0.03642 -0.90571,-0.02409 -1.36568,-0.3149c-0.32468,0.1561 -0.6424,0.32528 -0.94899,0.51535c-3.16959,1.96501 -3.7293,6.12447 -4.30371,9.39726l0.04046,1.55205c0,0 0,2.5 -2.5,2.5c-2.5,0 -2.5,-2.5 -2.5,-2.5l0.04046,-2.44795c0.88975,-4.7392 2.0347,-9.69269 6.36296,-12.60274c1.44168,-0.9693 3.14374,-1.47947 4.71561,-2.2192c0,0 0.53578,-0.24728 1.20686,-0.24127c0.97695,-6.39738 3.17233,-14.4657 9.46382,-17.09391c1.5598,-0.65159 3.33121,-0.57724 4.99681,-0.86585c0,0 2.47093,-0.38014 2.85108,2.09079c0.01755,0.11406 0.02902,0.22367 0.03494,0.32899c1.55752,-3.2824 4.05388,-6.04369 7.7159,-6.99769c-0.35978,-1.01247 -0.03452,-2.19515 -0.0551,-3.28448c-0.14831,-7.84846 5.67377,-13.77528 13.79309,-12.8161c0.74154,0.0876 1.63684,0.16774 2.56961,0.31062c0.42558,-1.80623 1.16529,-3.49126 2.68243,-4.90829c1.50393,-1.40467 3.11144,-2.80169 4.99763,-3.62461c1.09915,-0.47955 2.39688,-0.16243 3.59549,-0.12447c4.19789,0.13294 10.67618,0.03858 14.27271,2.47975c0.34697,0.23551 0.66938,0.45813 0.9689,0.67027c0.39476,-0.38499 0.82515,-0.77695 1.29896,-1.1947c1.57356,-1.38743 4.94812,-3.97127 7.0274,-4.54588c4.77211,-1.31878 9.78898,0.8613 13.21764,3.8964c3.397,3.00707 6.20102,6.43139 7.56668,10.3535c6.96712,-1.38562 13.60843,1.57928 17.73276,7.23426c2.1217,2.90912 3.09873,6.509 4.2441,9.84091c2.42967,7.06796 4.74232,14.15196 6.39275,21.44093c3.83796,0.81313 7.3039,1.78814 9.88664,5.60065c1.11957,1.65265 1.36658,3.75115 2.04986,5.62673l0.03668,5.09334c0,0 0,2.5 -2.5,2.5zM219.46358,184.549c2.03433,-1.45309 3.48743,0.58124 3.48743,0.58124l1.85197,2.63611c1.13935,3.191 1.59387,9.91314 4.76137,12.02369c1.82661,1.2171 5.74922,0.27374 7.49491,-0.73824c5.36762,-3.11163 9.82601,-8.08545 14.5903,-12.05569c0,0 1.92055,-1.60047 3.52101,0.32009c1.60046,1.92056 -0.32009,3.52102 -0.32009,3.52102c-3.38576,2.82146 -6.72143,5.68139 -10.02893,8.59548c-1.79537,1.58182 -3.8098,3.41242 -6.08093,4.48627l2.05751,2.35143l-0.06718,0.05879l0.2219,0.13694c0.79086,1.45033 1.2903,3.0643 1.50335,4.72272c0.47084,0.31644 0.94631,0.57982 1.42643,0.75529c2.98881,1.09235 7.59637,1.74375 10.80955,1.48262c1.55979,-0.12677 6.2881,-1.07387 7.0029,-2.98992c0.6998,-1.87586 0.46026,-4.06576 -0.47808,-5.78934c-0.6868,-0.23375 -1.26313,-0.54203 -1.63221,-0.9485c-0.08861,-0.09759 -0.17463,-0.19708 -0.25829,-0.2983l-0.05607,0.06408l-2.65602,-2.32402c-0.52945,-0.4584 -0.86438,-1.13547 -0.86438,-1.89076c0,-1.38071 1.11929,-2.5 2.5,-2.5c0.41989,0 0.81561,0.10352 1.16302,0.28643l2.62168,1.31084l-0.05599,0.112l0.30633,0.03181c0.53623,0.46721 1.17845,0.84672 1.73695,1.2955c2.66176,0.02663 5.63862,0.87587 8.38394,0.34949c6.18205,-1.18535 11.02741,-7.53215 6.5324,-13.3576c-1.31968,-1.71028 -2.52253,-1.9755 -4.38022,-2.78399l-3.08632,-0.61726c-1.16847,-0.20987 -2.05512,-1.23165 -2.05512,-2.46053c0,-1.38071 1.11929,-2.5 2.5,-2.5c0.09542,0 0.18959,0.00534 0.28222,0.01575l2.91299,0.2913c-0.90897,-2.17177 -1.35749,-3.33471 -2.31359,-4.09214c-0.70317,0.70541 -1.441,1.37345 -2.11386,2.05285c0,0 -1.76777,1.76776 -3.53553,0c-1.76776,-1.76776 0,-3.53554 0,-3.53554c0.05425,-0.05364 0.13963,-0.13219 0.24887,-0.2314l-1.02343,-0.22703c0,0 -2.44047,-0.54233 -1.89814,-2.9828c0.54233,-2.44047 2.9828,-1.89814 2.9828,-1.89814l3.07251,0.68392c0.12653,0.04191 0.25434,0.08133 0.38317,0.11879c0.23653,-1.07694 0.34328,-2.09363 0.3355,-3.0593c-0.28692,-0.59716 -0.26472,-1.14514 -0.12159,-1.59966c-0.58589,-4.00815 -3.22256,-7.13036 -6.60987,-10.15658c-2.20357,-1.96866 -5.46433,-3.68347 -8.64161,-2.7933c-1.12832,0.31612 -4.34963,2.9143 -4.9726,3.45412c-0.43118,0.37363 -0.81244,0.71284 -1.15462,1.04781c0.41394,1.10679 0.39522,2.43152 0.33066,4.52933c-0.03948,1.2829 0.26509,2.74779 -0.43067,3.82637c-0.10703,0.16592 -0.21876,0.32807 -0.33468,0.48684l0.07486,0.04813l-2.6814,4.17108c-0.44099,0.7101 -1.22794,1.18292 -2.12533,1.18292c-1.38071,0 -2.5,-1.11929 -2.5,-2.5v-3.33333c0.0125,-2.74089 -0.21578,-4.209 0.82947,-6.88743c0.16224,-0.41573 0.32738,-0.80086 0.49796,-1.16153c-2.67199,-1.76236 -6.78766,-1.63129 -9.63235,-1.7882c-1.58423,-0.08739 -3.30459,-1.13839 -4.73784,-0.4578c-2.86291,1.35948 -3.91149,3.2576 -4.46374,5.64595c0.86446,0.77743 1.44307,1.86614 1.49519,3.41145c0.02284,0.6774 -0.26506,1.22797 -0.7226,1.70929l0.15446,0.12872l-1.65445,1.98533c-0.4585,0.55817 -1.15406,0.91421 -1.93277,0.91421c-1.28702,0 -2.34689,-0.97255 -2.4848,-2.22282l-0.32922,-2.63376l0.10553,-0.01319l-0.05031,-0.11964c-1.4582,-0.4522 -2.92522,-1.10593 -4.51201,-0.70879c-4.72892,1.18356 -6.10576,3.95581 -6.22919,8.19821c-0.01788,0.61459 -0.41195,1.28726 -0.14093,1.83915c0.30686,0.62489 0.77168,1.14614 1.26467,1.64891c0.11562,0.0628 0.22854,0.13089 0.33844,0.20452c0.22405,0.15011 0.42871,0.3186 0.61724,0.50237l0.06684,-0.07639l2.65602,2.32403c0.52945,0.4584 0.86438,1.13547 0.86438,1.89075c0,1.38071 -1.11929,2.5 -2.5,2.5c-0.54044,0 -1.04083,-0.17148 -1.44972,-0.46301l-2.5174,-1.74445l0.09561,-0.13798l-0.37765,-0.08939c-0.0723,-0.09389 -0.14587,-0.18701 -0.22051,-0.27948c-1.66545,0.3541 -3.22788,-0.03257 -5.37115,1.9527c-5.04219,4.67046 -3.1043,11.6806 0.79941,15.86731l4.29339,0.57245c1.24128,0.14634 2.20416,1.20206 2.20416,2.48268c0,1.06767 -0.66929,1.97902 -1.61119,2.33739l-2.5857,1.05267c-0.99755,1.8377 -1.34407,7.04185 -0.86057,8.57796c0.41542,1.31984 1.50776,2.3223 2.32574,3.4383c0.35627,0.48607 2.35058,3.24224 3.45624,3.58083c2.49875,0.7652 3.5085,0.56259 5.21265,-1.22477c0.92407,-0.9692 1.09026,-3.31105 2.42502,-3.20291c2.27913,0.18465 3.75161,2.61689 5.6715,3.85888c2.83566,1.83441 5.80617,3.75156 9.37074,3.1326c2.86567,-0.49759 4.76688,-3.35717 5.22336,-6.29676c-0.95916,-0.77564 -1.67992,-1.71706 -1.97953,-2.86708c-0.0517,-0.19845 -0.09674,-0.39787 -0.13585,-0.59816l-0.09581,0.02555l-1.27363,-4.77611c-0.06451,-0.22189 -0.0991,-0.45652 -0.0991,-0.69923c0,-0.08194 0.00394,-0.16296 0.01164,-0.24287c-2.4484,0.20146 -5.5036,0.09228 -7.15931,-0.96383c-4.43881,-2.83133 -5.06871,-9.54107 -6.57197,-13.9763l-1.48136,-2.03056c0,0 -1.4531,-2.03433 0.58123,-3.48743z" fill="#000000"></path><path d="M219.93203,187.69745l1.48045,2.02512c1.50325,4.43524 2.11293,11.115 6.55174,13.94633c1.65571,1.05611 4.6963,1.15833 7.1447,0.95687c-0.0077,0.07992 -0.01178,0.1609 -0.01178,0.24284c0,0.24271 0.03393,0.47715 0.09844,0.69904l1.26885,4.77506l0.09564,-0.02558c0.03912,0.20029 0.08371,0.39963 0.13541,0.59808c0.29961,1.15001 1.00907,2.19072 1.96823,2.96636c-0.45648,2.93958 -2.36435,5.79824 -5.23002,6.29583c-3.56456,0.61895 -6.54811,-1.30288 -9.38377,-3.13728c-1.91989,-1.242 -3.40041,-3.6795 -5.67954,-3.86415c-1.33476,-0.10814 -1.50083,2.2338 -2.42491,3.203c-1.70416,1.78736 -2.71676,1.98752 -5.21551,1.22232c-1.10566,-0.33859 -3.10389,-3.09884 -3.46016,-3.58491c-0.81798,-1.116 -1.91321,-2.12219 -2.32864,-3.44203c-0.4835,-1.5361 -0.14126,-6.74756 0.85629,-8.58526l2.5858,-1.05247c0.9419,-0.35837 1.61031,-1.27163 1.61031,-2.3393c0,-1.28062 -0.9645,-2.34061 -2.20578,-2.48695l-4.29408,-0.57479c-3.90371,-4.18671 -5.84283,-11.21747 -0.80064,-15.88792c2.14327,-1.98526 3.70648,-1.6026 5.37193,-1.9567c0.07463,0.09247 0.24564,0.20808 0.31794,0.30196l0.37765,0.08938l-0.09556,0.13775l2.51778,1.74256c0.40889,0.29153 0.81083,0.44544 1.35127,0.44544c1.38071,0 2.50123,-1.12458 2.50123,-2.50529c0,-0.75528 -0.33408,-1.43502 -0.86353,-1.89343l-2.65529,-2.32598l-0.06689,0.07653c-0.18854,-0.18377 -0.39306,-0.35261 -0.61711,-0.50272c-0.1099,-0.07363 -0.22278,-0.1418 -0.33841,-0.2046c-0.49299,-0.50277 -0.9572,-1.02543 -1.26407,-1.65032c-0.27102,-0.55189 0.12411,-1.22681 0.14199,-1.8414c0.12342,-4.24239 1.50879,-7.0267 6.2377,-8.21026c1.58679,-0.39714 3.05684,0.25367 4.51504,0.70587l0.11658,0.19452l-0.10542,0.0131l0.33113,2.63197c0.13791,1.25027 1.12771,2.15147 2.41474,2.15147c0.77872,0 1.4773,-0.35876 1.9358,-0.91692l1.65845,-1.98831l-0.15456,-0.12866c0.45754,-0.48132 0.74791,-1.03345 0.72506,-1.71085c-0.05212,-1.54531 -0.63009,-2.6344 -1.49455,-3.41183c0.55225,-2.38835 1.6099,-4.29054 4.47281,-5.65001c1.43326,-0.68059 3.16019,0.36872 4.74442,0.4561c2.84469,0.15691 6.97575,0.02537 9.64774,1.78772c-0.17058,0.36067 -0.34746,0.84511 -0.5097,1.26084c-1.04525,2.67843 -0.80597,4.04714 -0.81847,6.78803l0.00097,3.33345c0,1.38071 1.12754,2.50178 2.50825,2.50178c0.89739,0 1.68863,-0.47128 2.12962,-1.18139l2.68318,-4.17031l-0.07503,-0.0482c0.11592,-0.15877 0.18634,-0.22984 0.29337,-0.39577c0.69575,-1.07858 0.39317,-2.54262 0.43265,-3.82552c0.06456,-2.0978 0.08624,-3.42144 -0.3277,-4.52823c0.34217,-0.33497 0.75613,-0.76868 1.18731,-1.14231c0.62297,-0.53983 3.84852,-3.13625 4.97685,-3.45237c3.17728,-0.89017 6.44761,0.8305 8.65118,2.79916c3.38732,3.02622 6.0344,6.15945 6.62029,10.1676c-0.14313,0.45451 -0.16431,1.00404 0.12261,1.6012c0.00779,0.96568 -0.09724,1.98526 -0.33378,3.0622c-0.12883,-0.03745 -0.3442,-0.02856 -0.47073,-0.07047l-3.07088,-0.6812c0,0 -2.35639,-0.59646 -2.89871,1.84401c-0.54233,2.44047 1.90107,2.98799 1.90107,2.98799l1.02389,0.228c-0.10924,0.09921 -0.19455,0.17792 -0.2488,0.23156c0,0 -1.76574,1.77296 0.00203,3.54073c1.76776,1.76776 3.44,0.02949 3.44,0.02949c0.67286,-0.6794 1.50614,-1.37719 2.20932,-2.0826c0.9561,0.75743 1.40625,1.92656 2.31522,4.09833l-3.01087,-0.2708c-0.09263,-0.01041 -0.08922,-0.03761 -0.18464,-0.03761c-1.38071,0 -2.4994,1.12238 -2.4994,2.50308c0,1.22888 0.88715,2.25496 2.05562,2.46483l3.08639,0.61846c1.85769,0.80849 3.06058,1.07752 4.38026,2.78781c4.495,5.82545 -0.35461,12.19107 -6.53665,13.37641c-2.74532,0.52639 -5.72467,-0.31797 -8.38643,-0.34461c-0.5585,-0.44878 -1.28745,-0.87807 -1.82367,-1.34528l-0.30622,-0.03202l0.14285,-0.06242l-2.62185,-1.31055c-0.34741,-0.18291 -0.74352,-0.28576 -1.16341,-0.28576c-1.38071,0 -2.50476,1.12595 -2.50476,2.50666c0,0.75528 0.33366,1.4338 0.8631,1.8922l2.58214,2.25664l0.05596,-0.06396c0.08366,0.10122 0.16974,0.20064 0.25835,0.29823c0.36908,0.40647 1.01995,0.78142 1.70675,1.01516c0.93834,1.72358 1.17358,3.9178 0.47378,5.79366c-0.7148,1.91605 -5.45255,2.86977 -7.01234,2.99653c-3.21318,0.26113 -7.83664,-0.38489 -10.82545,-1.47724c-0.48012,-0.17548 -0.95807,-0.43851 -1.42891,-0.75495c-0.21305,-1.65842 -0.71485,-3.27219 -1.50572,-4.72252l-0.22242,-0.13692l0.06736,-0.0588l-2.05753,-2.45129c2.27113,-1.07385 4.2655,-2.90138 6.06087,-4.4832c3.3075,-2.9141 6.61327,-5.7433 9.99903,-8.56476c0,0 1.91816,-1.5896 0.3177,-3.51016c-1.60046,-1.92056 -3.4216,-0.30929 -3.4216,-0.30929c-4.76429,3.97024 -9.28207,8.9876 -14.64968,12.09923c-1.74569,1.01198 -5.68778,1.9469 -7.51439,0.7298c-3.1675,-2.11055 -3.64236,-8.86634 -4.78172,-12.05734l-1.85242,-2.64469c0,0 -1.35319,-2.02995 -3.38753,-0.57685c-2.03433,1.45309 -0.58148,3.47902 -0.58148,3.47902z" fill="url(#color-1)"></path><path d="M247.75001,178.58334c0,-1.38071 1.11929,-2.5 2.5,-2.5c1.38071,0 2.5,1.11929 2.5,2.5c0,1.38071 -1.11929,2.5 -2.5,2.5c-1.38071,0 -2.5,-1.11929 -2.5,-2.5z" fill="#000000"></path><path d="M232.41668,177.91667c0,-1.38071 1.11929,-2.5 2.5,-2.5c1.38071,0 2.5,1.11929 2.5,2.5c0,1.38071 -1.11929,2.5 -2.5,2.5c-1.38071,0 -2.5,-1.11929 -2.5,-2.5z" fill="#000000"></path><path d="M212.08335,180.25c0,2.10522 -1.77278,2.43766 -2.33267,2.49015c-1.8054,1.36139 -3.48914,2.92182 -4.86062,4.71137c0,0 -1.53485,1.97338 -3.50823,0.43852c-1.97338,-1.53485 -0.43853,-3.50823 -0.43853,-3.50823c0.29272,-0.37178 0.59564,-0.73593 0.90776,-1.09257c-0.06576,-0.22386 -0.10105,-0.46076 -0.10105,-0.70591c0,-1.38071 1.11929,-2.5 2.5,-2.5c0.25442,0 0.49998,0.038 0.73128,0.10865c0.79556,-0.68921 1.62086,-1.3434 2.46496,-1.96382l2.1371,-0.47816c0,0 2.5,0 2.5,2.5z" fill="#969696"></path></g></g></svg>